<?xml version="1.0" encoding="UTF-8" standalone="no"?><!DOCTYPE svg PUBLIC "-//W3C//DTD SVG 1.1//EN" "http://www.w3.org/Graphics/SVG/1.1/DTD/svg11.dtd"><svg width="100%" height="100%" viewBox="0 0 555 372" version="1.1" xmlns="http://www.w3.org/2000/svg" xmlns:xlink="http://www.w3.org/1999/xlink" xml:space="preserve" xmlns:serif="http://www.serif.com/" style="fill-rule:evenodd;clip-rule:evenodd;stroke-linecap:round;stroke-linejoin:round;stroke-miterlimit:1.5;"><g id="Cartoon"><g><path d="M374.373,187.958l-73.78,24.748" style="fill:none;stroke:#2238f0;stroke-width:2px;"/><path d="M374.373,187.958l-78.59,18.937" style="fill:none;stroke:#2238f0;stroke-width:2px;"/><path d="M374.373,187.958l-60.292,37.875" style="fill:none;stroke:#2238f0;stroke-width:2px;"/><path d="M374.373,187.958l-92.343,5.152" style="fill:none;stroke:#2238f0;stroke-width:2px;"/><path d="M295.783,206.895l-13.753,-13.785" style="fill:none;stroke:#2238f0;stroke-width:2px;"/><path d="M314.081,225.833l-13.488,-13.127" style="fill:none;stroke:#2238f0;stroke-width:2px;"/><path d="M300.593,231.927l-4.81,-25.032" style="fill:none;stroke:#2238f0;stroke-width:2px;"/><path d="M300.593,231.927l0,-19.221" style="fill:none;stroke:#2238f0;stroke-width:2px;"/><path d="M300.593,231.927l12.009,-7.533" style="fill:none;stroke:#2238f0;stroke-width:2px;"/></g><path d="M1,370.649c27.148,-12.833 81.443,-38.498 92.137,-68.425c10.695,-29.927 -53.274,-90.466 -27.971,-111.137c36.945,-30.182 135.387,62.961 206.564,30.762" style="fill:none;stroke:#2238f0;stroke-width:2px;"/><path d="M484.43,57.962l-3.574,-20.909l20.91,-3.575" style="fill:none;stroke:#2238f0;stroke-width:2px;stroke-linejoin:miter;stroke-miterlimit:10;"/><path d="M391.654,179.137c32.31,-8.785 93.443,-30.605 113.897,-53.446c27.845,-31.094 7.075,-65.905 -24.695,-88.638" style="fill:none;stroke:#2238f0;stroke-width:2px;"/></g></svg>