<?xml version="1.0" encoding="UTF-8" standalone="no"?><!DOCTYPE svg PUBLIC "-//W3C//DTD SVG 1.1//EN"
        "http://www.w3.org/Graphics/SVG/1.1/DTD/svg11.dtd">
<svg width="100%" height="100%" viewBox="0 0 85 64" version="1.1" xmlns="http://www.w3.org/2000/svg"
     xmlns:xlink="http://www.w3.org/1999/xlink" xml:space="preserve" xmlns:serif="http://www.serif.com/"
     style="fill-rule:evenodd;clip-rule:evenodd;stroke-linecap:round;stroke-linejoin:round;stroke-miterlimit:1.5;"><g>
    <path d="M37.494,38.385l-3.31,21.83l20.842,-8.768l22.16,-28.021l-19.033,-14.053l-20.659,29.012Z" style="fill:none;stroke:#2238f0;stroke-width:4px;"/>
    <path d="M2.829,55.138c2.519,1.745 7.557,5.235 10.386,5.32c2.718,0.081 3.95,-4.94 6.587,-4.813c2.637,0.126 7.036,3.757 9.236,5.573" style="fill:none;stroke:#2238f0;stroke-width:4px;"/>
    <path d="M43.381,43.285c6.615,-8.733 19.845,-26.2 19.845,-26.2" style="fill:none;stroke:#2238f0;stroke-width:4px;"/>
    <path d="M49.338,47.565l19.585,-25.948" style="fill:none;stroke:#2238f0;stroke-width:4px;"/>
    <path d="M58.879,8.854l4.347,-6.035l19.274,14.266l-4.65,5.853l-18.971,-14.084Z" style="fill:none;stroke:#2238f0;stroke-width:4px;"/>
    <path d="M37.494,49.841l5.887,3.212" style="fill:none;stroke:#2238f0;stroke-width:4px;"/></g></svg>