<?xml version="1.0" encoding="UTF-8" standalone="no"?><!DOCTYPE svg PUBLIC "-//W3C//DTD SVG 1.1//EN"
        "http://www.w3.org/Graphics/SVG/1.1/DTD/svg11.dtd">
<svg xmlns:xlink="http://www.w3.org/1999/xlink" xmlns:serif="http://www.serif.com/" width="100%" height="100%" viewBox="0 0 57 63"
     version="1.1" xmlns="http://www.w3.org/2000/svg" xml:space="preserve"
     style="fill-rule:evenodd;clip-rule:evenodd;stroke-linecap:round;stroke-linejoin:round;stroke-miterlimit:1.5;"><g><path d="M20.262,20.047l16.526,0l-5.541,21.609l-5.117,0l-5.868,-21.609Z" style="fill:none;stroke:#2238f0;stroke-width:4px;"/><circle
        cx="28.525" cy="55.19" r="4.945" style="fill:none;stroke:#2238f0;stroke-width:4px;"/><path
        d="M16.462,4.445c-1.903,1.081 -5.709,3.243 -7.093,5.472c-1.385,2.229 -1.273,6.012 -1.216,7.904"
        style="fill:none;stroke:#2238f0;stroke-width:4px;"/><path
        d="M8.124,2.143c-1.165,0.876 -3.495,2.629 -4.443,3.943c-0.806,1.118 -1.099,3.001 -1.245,3.943"
        style="fill:none;stroke:#2238f0;stroke-width:4px;"/><path
        d="M40.051,9.463c1.902,1.081 5.708,3.243 7.093,5.472c1.385,2.23 1.272,6.013 1.216,7.904"
        style="fill:none;stroke:#2238f0;stroke-width:4px;"/><path
        d="M48.389,7.161c1.164,0.876 3.494,2.629 4.442,3.943c0.807,1.118 1.099,3.002 1.245,3.943"
        style="fill:none;stroke:#2238f0;stroke-width:4px;"/></g></svg>